<?xml version="1.0" encoding="UTF-8" standalone="no"?>
<!-- Created with Inkscape (http://www.inkscape.org/) -->

<svg
   width="198.46002mm"
   height="124.90934mm"
   viewBox="0 0 198.46002 124.90934"
   version="1.1"
   id="svg1"
   xml:space="preserve"
   inkscape:version="1.3.2 (091e20e, 2023-11-25, custom)"
   sodipodi:docname="guidance.svg"
   xmlns:inkscape="http://www.inkscape.org/namespaces/inkscape"
   xmlns:sodipodi="http://sodipodi.sourceforge.net/DTD/sodipodi-0.dtd"
   xmlns="http://www.w3.org/2000/svg"
   xmlns:svg="http://www.w3.org/2000/svg"><sodipodi:namedview
     id="namedview1"
     pagecolor="#505050"
     bordercolor="#eeeeee"
     borderopacity="1"
     inkscape:showpageshadow="0"
     inkscape:pageopacity="0"
     inkscape:pagecheckerboard="0"
     inkscape:deskcolor="#505050"
     inkscape:document-units="mm"
     inkscape:zoom="0.69219276"
     inkscape:cx="559.81516"
     inkscape:cy="334.44441"
     inkscape:window-width="1920"
     inkscape:window-height="991"
     inkscape:window-x="-9"
     inkscape:window-y="-9"
     inkscape:window-maximized="1"
     inkscape:current-layer="layer1" /><defs
     id="defs1" /><g
     inkscape:label="Layer 1"
     inkscape:groupmode="layer"
     id="layer1"
     transform="translate(-7.9492222,-77.14381)"><rect
       style="fill:#f2f3f4;fill-opacity:1;stroke-width:0.1;paint-order:fill markers stroke"
       id="rect1"
       width="198.46001"
       height="124.90934"
       x="7.9492221"
       y="77.143806" /><path
       style="fill:#000000;fill-opacity:1;stroke:none"
       d="m 17.460086,77.14381 -0.317029,0.63405 h 0.634057 L 17.460086,77.14381 M 120.17741,93.6293 v 0.31703 c -5.2655,2.76353 3.12922,8.44905 1.79821,11.66377 -0.99734,2.40881 -4.85088,4.13969 -6.26694,6.7239 -2.51215,4.5845 -3.5117,10.10375 -5.6324,14.90035 -2.43091,5.49823 -6.09166,10.38646 -8.67304,15.85144 -1.681686,3.56028 -3.359831,7.13983 -4.868194,10.77898 -0.581658,1.40335 -0.693172,3.30017 -2.05555,4.20185 -1.175787,0.7782 -2.26628,0.17827 -3.468731,-0.14872 -5.44589,-1.48098 -4.987355,-7.11584 -8.545343,-10.86509 -1.251184,-1.31844 -4.035586,-1.38014 -5.720953,-1.78891 -4.41691,-1.07129 -8.883032,-1.92009 -13.315209,-2.92298 -2.045686,-0.46288 -4.341779,-1.3991 -6.340576,-0.52324 3.05147,7.32935 7.414196,14.47128 11.535106,21.24093 1.1227,1.84432 1.801437,5.42416 3.149003,6.80682 3.09149,3.17201 9.813404,4.72907 13.848482,6.46069 3.072141,1.31838 7.71559,4.27292 11.096008,4.10033 6.830517,-0.34872 14.310227,-3.79824 20.923897,-5.52011 1.69509,-0.44132 4.43184,-2.20256 6.03603,-2.05262 4.64694,0.43436 9.53206,3.00294 13.93678,4.47118 8.09337,2.6978 16.24704,5.04131 24.41122,7.4262 3.9253,1.14665 7.99203,2.80628 12.04709,3.35278 v -0.31703 l -14.90035,-4.12137 0.31703,-12.36412 h -0.31703 l -0.31703,12.04709 -5.70652,-1.58514 c 0.80644,-2.52207 1.46833,-8.55454 3.58345,-10.19018 2.45083,-1.89525 7.44165,-1.51375 10.36582,-2.808 v -0.31703 l -7.60869,1.90217 c 2.1857,-1.6663 6.8675,-0.89923 6.97463,-4.12137 h 0.31703 v 1.90217 h 0.31703 l -0.31703,-3.17029 h -0.31703 v 1.26812 h -0.31703 l -1.26811,-5.07247 h 0.31703 l 0.95108,3.48732 h 0.31703 c -0.21229,-1.57529 -0.44661,-3.27975 -1.90217,-4.12137 l 1.33882,6.61064 -2.28991,1.19155 -7.29166,2.65976 c 1.34193,-3.50572 2.2188,-7.34331 2.2192,-11.09601 -3.02547,0.88998 -5.70063,9.24733 -2.53623,11.09601 l -3.17028,10.77898 c -5.70953,-1.82631 -11.43248,-3.59947 -17.11956,-5.49517 -1.57587,-0.52529 -5.17958,-1.02163 -5.81978,-2.78183 -0.48606,-1.3364 0.32159,-3.39353 0.61278,-4.72118 0.69843,-3.1844 1.40266,-6.24063 1.40266,-9.51087 -2.03845,1.55152 -1.85158,8.01074 -1.90218,10.46195 l -10.14492,-3.17029 c 1.43619,-4.41379 2.90237,-10.70341 6.97488,-13.48228 1.46911,-1.00245 3.72293,-1.12618 5.38924,-1.80066 1.76863,-0.71588 3.11094,-1.77837 5.07246,-1.83661 v 0.31703 c -2.6045,0.86444 -1.09674,7.37459 0.70525,8.68062 1.71444,1.24257 3.85939,-1.18636 5.63533,-1.26641 2.29336,-0.10337 4.67504,2.10566 6.90345,1.64924 2.27364,-0.46569 2.47625,-7.67529 1.97336,-9.38048 2.71953,0.11677 6.27195,0.87654 7.99274,3.1764 1.72717,2.30837 2.18195,5.7207 4.37138,7.60258 1.14738,-2.04834 0.42691,-3.59715 0.86351,-5.70652 0.48339,-2.33542 2.31062,-3.94426 1.03866,-6.34058 1.9436,-0.62923 2.01566,-3.31189 2.40169,-5.07246 1.09461,-4.99217 1.51717,-10.45858 0.85789,-15.53441 -0.98869,-7.61188 -4.78235,-14.05122 -9.07422,-20.28984 -1.63471,-2.3762 -3.70777,-5.81709 -6.23367,-7.3012 -4.32166,-2.53921 -11.36856,-2.61533 -16.16725,-1.5756 -0.0203,-7.08722 -2.18179,-17.20196 -11.73007,-14.10142 -1.35344,0.4395 -2.62485,1.05619 -3.80434,1.85128 -1.64193,1.10684 -6.80048,6.247 -2.85326,7.4947 m 17.75361,-1.26811 h -0.31703 v -0.63406 h -0.31703 l 1.58515,9.19384 h 0.31703 v -2.53623 l 1.58514,0.31702 v 0.31703 l -0.31703,0.95109 h 0.31703 l 0.31703,-0.95109 0.95109,0.31703 c 0.9381,-1.44703 3.20063,-0.95108 4.75543,-0.95108 6.29335,0 9.77033,3.27343 13.31521,8.24274 3.74556,5.25067 7.57126,11.05686 9.03532,17.43659 1.84892,8.05672 0.20398,15.87695 -1.42663,23.77716 l -5.38949,-0.31703 v 0.31703 c 5.20246,0.22395 4.77442,2.20586 3.17029,6.34057 l -2.2192,-0.31703 v 0.31703 h 0.95108 v 0.31703 h -0.95108 v 0.31703 l 1.90217,-0.31703 -0.31703,5.07246 h -0.63406 l -2.2192,-5.38949 1.26812,0.31703 v -0.31703 c -0.80165,-0.16033 -0.80164,-0.15669 0,-0.31703 v -0.31703 l -4.76792,-3.13334 -7.91324,-2.57317 0.31703,0.63405 -0.95108,-0.31703 v 0.31703 c 3.27469,1.14838 2.51784,3.78779 1.96406,6.65761 -0.18767,0.9725 -0.31363,2.86616 -1.41831,3.26642 -2.14854,0.77848 -5.861,-1.85224 -8.15444,-1.99831 -0.15941,1.21017 -2.87024,2.57905 -4.07148,1.93153 -2.01521,-1.08631 -3.24221,-7.926 -0.36693,-8.2721 v 1.26811 h 0.31703 l -3.17029,-2.85326 h -0.31703 c -0.20747,0.96819 -0.63615,0.93072 -1.58514,0.95109 v 0.31703 h 0.95109 v 0.31703 l -6.02355,2.2192 -0.63406,-6.02355 h -0.31703 l -0.19104,5.61601 -3.14925,4.21188 -4.2684,10.77898 4.12138,1.90218 -0.31703,1.58514 h 0.31703 l 0.31703,-2.2192 5.70651,1.90217 -0.31702,3.80435 c -2.16671,-0.18894 -6.002,-0.70415 -6.97464,-2.85326 l 0.95109,0.31703 v -0.95109 h -0.31703 c -3.39322,1.20321 -8.03853,-3.18697 -11.73007,-2.85326 l -2.2192,-1.26811 v 0.31702 c 0.80162,0.16033 0.80164,0.15671 0,0.31703 v 0.31703 l 1.58515,-0.31703 v 0.31703 h -0.63406 v 0.31703 l 11.73006,3.48732 -0.31702,0.63405 h 0.95108 c -0.85541,3.17964 -7.01167,3.54712 -9.82789,4.34643 -4.67502,1.32688 -11.63558,4.61334 -16.485495,4.13434 -4.357598,-0.43038 -9.619102,-3.70424 -13.632238,-5.44502 -3.092883,-1.34159 -6.203583,-2.66249 -9.192369,-4.22681 -1.145504,-0.59955 -2.604501,-1.75771 -1.269581,-2.93031 l -0.317028,-1.26811 c -1.005963,-0.1163 -1.038277,-0.60777 -0.951087,-1.58515 l -0.634057,0.31703 c -0.309908,-2.19703 -2.189442,-3.52391 -3.235115,-5.38949 -2.917332,-5.20481 -8.080229,-11.87006 -9.129008,-17.75361 2.875526,-0.31325 6.062721,0.95006 8.876806,1.52203 3.604529,0.73263 7.191439,1.58136 10.778979,2.39313 1.438679,0.32553 3.453865,0.42238 4.631655,1.38798 1.722717,1.41236 2.688737,4.48113 3.69304,6.42692 0.94295,1.82692 2.106072,3.25276 1.820226,5.38949 h 0.317029 l 0.634057,-0.31703 c 1.256419,-1.43601 3.195695,0.22015 4.75519,0.19839 1.731439,-0.0242 6.4292,-3.66658 6.02379,1.06973 l 1.902166,-0.95109 v -0.31703 l -0.63405,-0.95108 -0.634056,0.63406 -3.804349,-1.90218 c 2.298237,-9.69831 8.789885,-18.29479 13.350435,-26.94744 2.01432,-3.82174 3.13727,-8.02841 4.65929,-12.0471 1.24217,-3.2798 3.8042,-10.88406 8.30366,-10.46195 l 0.63406,-0.63405 c -1.11743,-2.59651 -5.72233,-8.84872 -3.56779,-11.60531 1.00912,-1.29111 3.32152,-1.71035 4.8359,-2.02693 v -0.31703 l -1.26811,-0.31703 0.31703,0.63406 c -1.04021,-10e-4 -3.64246,1.21622 -4.17348,-0.10103 -1.34261,-3.33046 4.68457,-6.87702 7.02674,-7.71437 6.28208,-2.24589 10.53729,1.35127 11.73006,7.49837 m -14.26629,-0.63406 v 0.31703 l 5.05387,-1.11181 1.52203,3.57563 2.42664,1.53059 1.14238,3.29725 h 0.31703 l 0.63405,-1.26811 3.28159,4.4384 -1.06238,12.99818 c -1.21407,-1.12178 -0.99898,-2.82944 -2.10912,-3.95846 -1.59122,-1.61827 -4.87666,-0.68728 -5.8166,1.1052 l -5.70652,-6.34057 h -0.31703 c 0.88314,2.27329 3.93452,5.40525 6.02355,6.6576 1.41277,-1.64895 4.23072,-2.79612 5.78944,-0.59957 0.94513,1.3319 0.64016,2.80753 2.13628,3.76986 0.39518,-1.65985 -0.16164,-6.02473 1.65755,-6.85917 1.52377,-0.69894 4.04898,2.04355 5.30803,0.58782 1.67429,-1.93585 -2.05695,-8.00366 -2.84421,-9.89712 h -0.31703 c 0.94504,3.28179 3.62462,6.59584 2.85326,10.14492 l -5.38949,-1.58514 c 1.54951,-2.31851 1.26812,-4.93256 1.26812,-7.60869 h -0.31703 l -0.63406,6.6576 h -0.31703 c 0.24782,-3.14 0.12431,-4.96516 -0.95109,-7.92572 l 0.95109,-0.95109 -1.26811,0.95109 c -0.74079,-1.80611 -2.35371,-4.29091 0.31702,-5.07246 v -0.31703 c -2.79952,0.21627 -1.99133,2.49807 -1.26811,4.4384 h -0.31703 l -0.63406,-1.26811 h -0.31703 l -0.63405,1.58514 h -0.31703 c -0.22651,-0.95094 -0.0811,-2.51861 -0.69081,-3.29627 -0.63614,-0.81141 -1.88201,-0.51138 -2.47068,-1.50612 -1.08046,-1.82578 0.0781,-3.3727 -2.54503,-4.07441 0.78751,-1.34926 1.39657,-3.35259 2.86696,-4.11135 3.20888,-1.65587 5.46442,3.40019 6.00985,5.69649 0.87356,-2.95446 -2.88627,-7.31653 -6.02233,-6.14928 -1.80509,0.67186 -1.98953,2.5569 -3.06021,3.88776 -0.97898,1.21688 -2.83173,1.68692 -4.23267,2.26152 m 3.17028,-0.95109 v 0.31703 l -2.53623,0.95109 v -0.31703 l 2.53623,-0.95109 m 15.53442,8.24275 v 0.31703 l 9.82789,0.31703 -9.82789,-0.63406 m 11.096,1.26812 c -0.27519,2.6867 -1.38001,4.77268 -1.25563,7.60869 0.29776,6.7892 2.69699,13.42763 3.16563,20.28984 0.23688,3.46857 2.00481,8.01376 -1.59297,10.14492 0.82519,-2.53692 1.96625,-5.62038 0.83465,-8.24275 -2.86061,-6.62916 -15.29734,-8.68798 -20.42292,-3.70013 -2.38296,2.31892 -2.21037,6.39399 -2.9648,9.40665 -0.19177,0.7658 -0.83559,2.40637 -1.91539,1.8831 -1.36945,-0.66364 -1.40558,-2.83365 -1.61841,-4.1023 -0.69133,-4.12093 -4.0648,-8.67208 -4.0135,-12.68115 0.025,-1.95131 1.44492,-6.44304 -0.96845,-7.29166 l 0.63406,8.55977 h -0.31703 c -0.69584,-1.60934 -1.95113,-3.03235 -3.80435,-2.85325 0.72474,1.64767 1.70383,2.98637 3.48732,3.48731 l -5.43352,9.19384 -7.38241,13.94926 -8.74203,12.68115 5.07246,-6.34057 10.87781,-19.02173 5.92472,-10.46195 h 0.63406 c 1.02399,3.55458 2.82514,6.76997 3.54945,10.46195 0.39865,2.03209 0.42356,4.06096 2.47409,5.07246 -1.55078,2.53385 -2.72337,4.90885 -2.85326,7.92572 h 0.31703 l 2.53623,-7.60869 c 1.25802,0.14066 1.83663,-0.0181 2.21921,-1.26811 h -0.31703 l -1.26812,0.95108 1.26812,-3.48731 h 0.31703 v 2.2192 h 0.31702 v -1.26812 h 0.31703 l -1.58514,5.38949 h 0.31703 c 0.60316,-0.88668 1.51681,-1.77279 1.73632,-2.85326 0.36485,-1.79577 -0.84978,-3.7651 0.85983,-5.21409 2.39502,-2.02992 7.4415,0.97125 8.45802,3.32562 0.45113,1.04487 -0.65957,2.3413 0.0555,3.28085 0.59202,0.77785 1.57124,0.2079 2.2055,-0.12426 -5.2e-4,4.66466 -1.26423,8.61091 -6.34058,9.82789 v 0.31703 c 3.58154,-0.36685 6.30858,-3.07908 6.34058,-6.65761 1.5142,1.0526 2.31659,0.56414 3.80434,-0.31702 -0.53479,2.32715 0.72508,4.08298 0.85544,6.35305 0.17034,2.96621 -2.34227,5.94148 -4.97681,6.96215 v 0.31703 c 3.37615,-0.68119 6.04581,-4.91881 5.07246,-8.24275 l 1.26811,-0.31702 v -0.31703 c -1.69953,-0.83836 -2.07253,-2.32804 -2.2192,-4.12138 h 0.31703 l 0.63406,1.90218 4.06267,-5.64806 2.59493,-2.91172 h 0.31703 l 0.95109,12.68115 h 0.31703 l -0.88944,-13.31521 1.46356,-5.70652 -2.4763,-8.8768 h 0.31703 l 4.81879,9.19383 -0.0634,12.36412 h 0.31702 l 0.11473,-12.68115 -3.8222,-6.97463 -3.9379,-10.46195 -0.88113,-7.92572 0.91781,-4.75543 m -31.70288,6.6576 c -5.66581,7.02986 -7.69063,15.35631 -11.36998,23.46013 -2.266,4.99091 -5.90037,9.33952 -8.36408,14.2663 -1.86326,3.72604 -6.982671,10.42648 -1.82389,12.99818 l -2.536231,-1.90217 c 2.807741,-8.61442 8.014601,-15.61285 12.266271,-23.46013 2.88429,-5.32353 4.61297,-11.17632 6.776,-16.80253 1.05031,-2.73193 4.91062,-5.80266 5.05191,-8.55978 m 1.58515,6.97464 0.31703,3.80434 h -0.31703 v -3.80434 m -3.17029,5.38949 2.53623,3.17028 c -1.3859,-0.4725 -2.96432,-1.53362 -2.53623,-3.17028 m 35.1902,0.95108 c 0.003,5.02076 3.95024,9.64826 1.26811,14.2663 h -0.31703 c -0.17167,-3.99761 -2.50699,-10.5584 -0.95108,-14.2663 m -2.85326,18.7047 c 0.32464,2.22825 -1.34483,4.25603 -2.53623,6.02355 H 149.661 l -0.63406,-2.53623 -0.63406,-0.31703 -2.85326,1.58514 -0.63405,-4.4384 -2.53623,0.63406 0.24755,-3.77451 -3.16838,-2.89606 -0.79003,-0.47808 -2.94675,-0.46004 -3.17029,-0.63406 0.63406,-0.95109 c -2.25681,-2.6024 3.50082,-5.68393 5.38949,-6.13313 4.87552,-1.15962 10.50922,-0.2421 14.20759,3.37503 2.40218,2.34942 2.98993,9.02078 -0.25832,11.00085 m -19.33876,-7.92572 0.31703,0.31703 -0.31703,-0.31703 m -0.63406,0.95109 1.26812,0.31703 -1.26812,2.2192 h -0.31703 l 0.31703,-2.53623 m 12.36413,7.29166 h 0.31702 c 2.69041,-3.0596 4.32445,0.0195 3.17029,2.85326 3.27179,-3.27849 -1.53253,-6.58106 -3.48731,-2.85326 m -13.94927,2.2192 3.48732,6.97463 h 0.31702 c -0.12555,-2.30217 -1.83275,-5.76982 -3.80434,-6.97463 m 29.48368,1.90217 -0.63406,7.29166 h 0.31703 l 0.31703,-3.17028 h 1.90217 v -0.31703 h -1.26812 v -0.31703 l 2.53623,0.31703 v -0.31703 h -2.85316 l -0.31703,-3.48732 m -32.33694,7.92572 v 0.31703 l 5.07246,-1.58514 -5.07246,1.26811 m 10.14492,0 c 0.40073,2.22042 1.88482,4.44427 4.12138,5.07246 v -0.31703 l -4.12138,-4.75543 m -49.773516,7.29166 2.536231,5.07247 -2.853259,-4.75544 h -0.317029 l 3.868926,6.35892 5.958966,12.02875 c -2.75174,0.36812 -5.762729,-1.55525 -8.242748,-2.62527 -5.576681,-2.4061 -11.530699,-5.79982 -17.436584,-7.20262 v 0.31703 c 6.524071,2.53042 12.85355,5.55413 19.338757,8.17914 1.962215,0.79426 5.307174,3.24515 6.657604,0.69767 h 2.853252 v -0.31703 h -1.268106 v -0.31703 l 4.755426,-0.95109 v -0.31703 l -6.97463,0.95109 -4.755431,-9.82789 c 4.859631,3.3111 12.178901,5.0887 17.753611,6.97463 l -5.70652,1.58514 v 0.31703 l 6.6576,-1.90217 c -4.38161,-2.04912 -9.10671,-3.49979 -13.632231,-5.20676 -2.352948,-0.8875 -4.601639,-1.34362 -5.389489,-3.98707 6.200898,-0.83432 10.82392,2.28735 16.80252,3.17028 v -0.31703 h -0.95108 v -0.31702 h 0.95108 v -0.31703 l -10.461944,-3.48732 1.902174,-3.17029 h -0.31703 l -2.219202,2.85326 1.268116,-2.2192 h -0.31703 l -0.951086,2.85326 -6.974633,0.63406 -2.536231,-4.75544 m 43.115916,1.58515 -0.31703,4.12137 h -0.31703 l 0.63406,-4.12137 m 26.63042,0 -1.90218,10.46195 c -3.27126,-1.80384 -0.0609,-8.18457 1.26812,-10.46195 h 0.63406 m -117.617683,0.63406 v 0.63405 h 25.679332 c -1.722591,-1.30503 -5.191056,-0.63405 -7.291662,-0.63405 h -18.38767 m 67.527133,5.07246 v 0.31703 l -10.144922,-2.85326 v -0.63406 l 10.144922,3.17029 m -15.217383,-2.74758 0.10568,0.10567 c -0.156454,0.0521 -0.350882,-0.10567 -0.10568,-0.10567 m -0.634057,0.21135 -0.317029,0.31703 0.317029,-0.31703 m -0.317029,0.95108 -0.317029,0.31703 0.317029,-0.31703 m 38.994539,0.31703 -0.31703,0.31703 0.31703,-0.31703 m -38.67751,0.31703 0.317029,0.95109 H 92.27888 v -0.95109 m -21.557958,0.31703 0.317029,0.95109 h 0.317029 l -0.634058,-0.95109 m 53.577858,3.48732 v 0.31702 l 5.07247,1.58515 v -0.31703 l -5.07247,-1.58514 m -11.096,4.4384 v 0.31703 l 7.92572,-1.58515 -7.92572,1.26812 m -12.0471,2.85326 v 0.31703 l 11.73007,-2.53623 c -3.07637,-1.1005 -8.50106,1.78439 -11.73007,2.2192 m -1.585136,0.31703 v 0.31703 l -1.585146,-0.31703 h 1.585146 m -91.6213218,25.3623 v 0.31703 H 206.40924 l -5.70652,-0.31703 H 189.28969 148.71 Z"
       id="path1"
       sodipodi:nodetypes="ccccccsssssscssscsssssssscccccccsccccccccccccccccccccccssscccssccssscscscsssscssccccccccccccccssscccccccccccccccccccccccsscscccccccccccccccccccccccccccccccccccccssssccccscssssccccccccccssccsccccsscccccccccccsccccscsscccccccccccccccccccsscscsscccccccccccsscssssscccccccccccccscccccccccccccccsssscccccsccccccccccccccccccccccccccssccsscccccccccccccccccccccccccccscccccccccccccccccccccccccccccccccccccccccccsccscccccccccccccscccccccccccccccccccccccccccscccccccccccccccccccccccccccccccccccccccccccccccccc" /></g></svg>
