<?xml version="1.0" encoding="UTF-8" standalone="no"?>
<!-- Created with Inkscape (http://www.inkscape.org/) -->

<svg
   width="83mm"
   height="56mm"
   viewBox="0 0 83 56"
   version="1.1"
   id="svg1"
   xml:space="preserve"
   xmlns="http://www.w3.org/2000/svg"
   xmlns:svg="http://www.w3.org/2000/svg"><defs
     id="defs1" /><g
     id="layer1"><path
       d="M 27.274894,0.00166249 A 27.591681,27.591681 0 0 0 0.00162432,27.890912 27.591681,27.591681 0 0 0 12.491301,50.645592 V 37.316182 A 17.74902,17.74902 0 0 1 9.8123943,28.182372 17.74902,17.74902 0 0 1 27.35706,10.241862 17.74902,17.74902 0 0 1 44.75702,23.827592 l 5.95002,-11.28045 A 27.591681,27.591681 0 0 0 27.274894,0.00166249 Z"
       style="fill:#1692f2;fill-opacity:1;stroke:none;stroke-width:0.1;stroke-opacity:1;paint-order:fill markers stroke"
       id="path4" /><path
       d="m 58.13191,1.3695325 -8.94984,18.2443695 -8.409291,17.20101 c 0,0 -4.395888,7.83652 -12.948564,8.39949 -6.113063,0.40238 -13.856002,-5.7242 -13.856002,-5.7242 l 0.0956,11.70627 c 4.16465,2.3914 8.12765,4.28535 14.238408,4.11809 3.620838,-0.0991 6.671874,-0.38096 9.651609,-1.77715 1.92711,-0.80913 3.853923,-2.07343 5.78103,-3.77445 1.90418,-1.87663 3.66789,-3.85882 5.06481,-6.1159 3.8038,-7.13644 6.3072,-14.1563 9.26507,-21.35736 l 5.37383,11.91917 h 9.73015 z"
       style="fill:#162a35;fill-opacity:1;stroke:none;stroke-width:0.1;paint-order:fill markers stroke"
       id="path9"/><rect
       style="fill:#162a35;fill-opacity:1;stroke:none;stroke-width:0.104473;stroke-dasharray:none;stroke-opacity:1;paint-order:fill markers stroke"
       id="rect6"
       width="10.453062"
       height="11.35766"
       x="48.051243"
       y="47.88398"
       transform="matrix(1,0,0.40071158,0.91620425,0,0)" /><rect
       style="fill:#000101;fill-opacity:1;stroke:none;stroke-width:0.104509;stroke-dasharray:none;stroke-opacity:1;paint-order:fill markers stroke"
       id="rect7"
       width="10.453062"
       height="1.6023961"
       x="47.911144"
       y="44.568913"
       transform="matrix(1,0,0.40213782,0.91557915,0,0)" /><rect
       style="fill:#0f518a;fill-opacity:1;stroke:none;stroke-width:0.104509;stroke-dasharray:none;stroke-opacity:1;paint-order:fill markers stroke"
       id="rect8"
       width="10.453062"
       height="1.6023961"
       x="47.942207"
       y="42.059666"
       transform="matrix(1,0,0.40213782,0.91557915,0,0)" /><rect
       style="fill:#1692f2;fill-opacity:1;stroke:none;stroke-width:0.104509;stroke-dasharray:none;stroke-opacity:1;paint-order:fill markers stroke"
       id="rect9"
       width="10.453062"
       height="1.6023961"
       x="48.060207"
       y="39.27953"
       transform="matrix(1,0,0.40213782,0.91557915,0,0)" /></g></svg>
