<?xml version="1.0" encoding="UTF-8" standalone="no"?>
<!-- Created with Inkscape (http://www.inkscape.org/) -->

<svg
   width="213.79002mm"
   height="116.03802mm"
   viewBox="0 0 213.79002 116.03802"
   version="1.1"
   id="svg1"
   xml:space="preserve"
   inkscape:version="1.3.2 (091e20e, 2023-11-25, custom)"
   sodipodi:docname="teaching.svg"
   xmlns:inkscape="http://www.inkscape.org/namespaces/inkscape"
   xmlns:sodipodi="http://sodipodi.sourceforge.net/DTD/sodipodi-0.dtd"
   xmlns:xlink="http://www.w3.org/1999/xlink"
   xmlns="http://www.w3.org/2000/svg"
   xmlns:svg="http://www.w3.org/2000/svg"><sodipodi:namedview
     id="namedview1"
     pagecolor="#505050"
     bordercolor="#eeeeee"
     borderopacity="1"
     inkscape:showpageshadow="0"
     inkscape:pageopacity="0"
     inkscape:pagecheckerboard="0"
     inkscape:deskcolor="#505050"
     inkscape:document-units="mm"
     inkscape:zoom="0.69219276"
     inkscape:cx="413.1797"
     inkscape:cy="400.89989"
     inkscape:window-width="1920"
     inkscape:window-height="991"
     inkscape:window-x="-9"
     inkscape:window-y="-9"
     inkscape:window-maximized="1"
     inkscape:current-layer="layer1" /><defs
     id="defs1"><linearGradient
       id="linearGradient17"
       inkscape:collect="always"><stop
         style="stop-color:#ffffff;stop-opacity:0;"
         offset="0"
         id="stop18" /><stop
         style="stop-color:#ffffff;stop-opacity:1;"
         offset="1"
         id="stop17" /></linearGradient><rect
       x="617.01379"
       y="104.1977"
       width="199.20148"
       height="35.754112"
       id="rect5" /><rect
       x="617.01379"
       y="104.1977"
       width="199.20148"
       height="35.754112"
       id="rect10" /><rect
       x="617.01379"
       y="104.1977"
       width="199.20148"
       height="35.754112"
       id="rect13" /><rect
       x="617.01379"
       y="104.1977"
       width="199.20148"
       height="35.754112"
       id="rect16" /><linearGradient
       inkscape:collect="always"
       xlink:href="#linearGradient17"
       id="linearGradient18"
       x1="184.66675"
       y1="63.620281"
       x2="184.85786"
       y2="78.43206"
       gradientUnits="userSpaceOnUse" /></defs><g
     inkscape:label="Layer 1"
     inkscape:groupmode="layer"
     id="layer1"
     transform="translate(-9.5581255,-19.210443)"><rect
       style="fill:#ffffff;fill-opacity:1;stroke-width:0.0999999;paint-order:fill markers stroke"
       id="rect4"
       width="213.79002"
       height="116.03802"
       x="9.5581255"
       y="19.210443" /><path
       style="fill:#000000;fill-opacity:1;stroke:none;stroke-width:0.999999"
       d="M 19.492657,25.538724 V 74.70936 86.569611 l 0.396185,4.193648 2.815973,0.25395 h 6.918476 l 9.14228,0.07855 2.965061,1.779766 5.930137,1.600918 c -2.27838,3.575068 -0.988354,8.745617 -0.988354,12.848607 0,1.89074 -0.253807,3.91045 0.494181,5.68304 1.47436,-0.813 0.988353,-2.97395 0.988353,-4.4476 0,-4.22032 0.625339,-7.4699 2.223798,-11.366065 1.86542,0.551391 4.299529,0.336084 5.930123,-0.741266 v -0.247095 c -2.31897,-1.687278 -6.298377,0.850767 -7.412657,-1.482532 3.276463,-0.564154 6.565183,-1.115412 9.883545,-1.778995 0.946496,-0.189285 2.769408,-0.893353 3.452377,0.127926 1.737173,2.597712 -0.701495,5.49416 -1.521421,7.584817 -0.688229,1.75484 -0.695513,3.82375 -0.695513,5.67941 -1.223572,-0.30143 -2.444643,-0.48838 -3.706331,-0.49399 -9.221,-0.0409 -6.096169,10.6935 -8.253441,16.30766 -0.674844,1.75623 -2.42567,2.18076 -3.606812,3.45925 h -0.24709 c -2.056637,-2.91159 -4.905487,-2.22021 -7.369763,-4.15113 -3.131233,-2.45353 -2.854201,-9.2837 -0.53708,-12.15672 -0.09102,0.49028 -0.202433,0.98359 -0.221161,1.48367 -0.155414,4.15085 5.160954,-0.77514 1.456605,-2.71912 2.604883,-4.58257 -1.492291,-9.824977 -6.671394,-9.30547 -2.485701,0.249334 -2.63937,1.90712 -4.303843,3.13207 -0.627412,0.46174 -1.439312,0.47123 -1.993482,1.08196 -1.270401,1.40007 -0.124155,3.82795 0.367204,5.33853 -1.638971,-0.78719 -2.777569,0.84904 -2.305971,2.46994 0.47782,1.64226 1.871101,1.40749 2.874499,2.37269 0.598807,0.57601 1.006999,1.80158 1.299125,2.57003 0.556398,1.46366 -0.738552,3.06845 -0.385127,4.69468 -6.610429,0.8398 -13.437354,4.53295 -11.613161,12.10735 l 0.741263,0.49418 c -0.298717,-1.54033 -0.695113,-3.11689 -0.412772,-4.69469 0.928763,-5.19013 7.548978,-6.06396 11.531761,-7.41265 0.899213,1.75456 5.611338,3.20492 6.979873,1.13038 0.716567,-1.08623 -1.338264,-1.67316 -2.038097,-1.7912 -0.57026,-0.0962 -1.153546,-0.0795 -1.729625,-0.0805 H 26.90532 c 0.09617,-4.51506 3.879465,-2.11302 6.918483,-3.70632 -1.386907,-2.57651 -4.014764,0.0144 -5.904201,-0.97062 -0.79572,-0.41482 -1.15919,-1.44347 -1.419616,-2.24154 -0.745886,-2.28572 -1.496976,-5.74918 -1.739535,-8.15392 -0.212868,-2.11034 1.628093,-1.7549 2.65906,-2.86344 0.733209,-0.78839 0.942588,-1.7181 1.957649,-2.303296 2.631205,-1.516956 6.456024,0.708586 7.941914,2.943126 2.004906,3.01506 -1.110267,4.62533 -2.300444,6.91924 -1.215181,2.34213 -1.40212,6.3674 -0.71857,8.89425 1.330601,4.91879 5.845422,3.24647 8.605956,6.44737 1.534092,1.77879 -0.654097,5.08443 0.629171,7.3751 0.856992,1.52976 2.493224,0.8238 2.628564,-0.72697 0.191793,-2.19759 -0.794768,-3.92275 -1.468043,-5.92994 1.496031,-0.54771 3.134518,-1.47757 3.851225,-2.96868 2.413153,-5.02055 -0.977679,-17.91796 8.750297,-16.40546 0.990855,0.15404 2.048205,0.26773 2.965062,0.6976 5.634046,2.64157 2.487732,10.44283 5.445865,14.72313 1.075972,1.55689 4.041028,4.37126 2.353634,6.39112 -1.399427,1.67515 -3.964757,-0.11456 -5.822792,0.0589 -3.115166,0.29085 -5.089121,3.42115 -8.40101,3.42626 -1.311292,0.002 -5.076535,-1.64973 -6.013633,-0.58398 -0.606882,0.6902 0.329284,1.53925 0.829537,1.94296 1.399374,1.12935 3.381188,1.97411 5.184096,2.08424 4.448891,0.27177 7.509816,-4.71046 12.107337,-4.94844 2.92242,-0.15127 4.941124,3.79845 8.15392,2.49853 3.535628,-1.43053 3.147185,-5.78037 5.171145,-8.37661 1.891186,-2.42593 5.485385,-3.33255 6.038412,-6.69351 0.662861,-4.0285 -1.930768,-7.89334 0.99427,-11.61298 2.332146,-2.96569 7.492521,-4.35494 10.447116,-1.4015 1.482267,1.48169 1.970987,3.82939 2.057928,5.84891 -1.278343,-1.26585 -1.635998,-3.14343 -2.975734,-4.42167 -0.766857,-0.73162 -1.668837,-1.22039 -2.707304,-1.43601 -8.467885,-1.75815 -4.461165,9.03882 -6.888738,13.27034 -2.185457,3.80945 -5.836058,6.4549 -7.540017,10.62481 -0.514725,1.25964 -1.398829,3.26028 -0.707331,4.61614 0.810165,1.58856 5.825951,-1.21031 7.229249,-1.36109 5.362531,-0.57618 10.712051,1.58287 16.060758,1.01506 2.40204,-0.25501 4.55451,-0.21662 5.93013,-2.54049 h 0.24709 c 0.52211,0.64558 1.99116,3.38872 2.89166,3.08937 1.07141,-0.35615 1.56958,-2.89466 1.95212,-3.83063 1.06077,-2.59552 2.68917,-4.99811 5.03976,-6.58255 3.6532,-2.46249 7.42227,1.10046 11.36608,-0.83011 v -0.49418 l -6.67139,-0.98835 c 2.05983,-3.08512 -1.34696,-2.59576 -2.28843,-4.94272 -0.99295,-2.47524 -0.86954,-5.03362 -0.92373,-7.6588 2.16499,0.61891 3.3223,1.49476 5.43596,0.24709 0.44726,1.58158 -0.39809,2.88881 -0.19066,4.44759 0.24683,1.85489 2.27804,3.06796 3.87373,1.84974 1.33308,-1.01776 1.86375,-2.96218 1.9483,-4.56771 0.31798,-6.03869 -9.05767,-8.88892 -11.5615,-3.21216 -2.04388,-2.26836 0.93972,-3.34304 2.96506,-3.94446 2.9791,-0.88461 6.78394,-0.52872 8.7341,2.21846 2.03347,2.86457 0.31757,8.46626 -1.92753,10.78935 -0.67656,0.70005 -5.13887,0.58331 -4.53931,1.74431 0.68598,1.32831 2.85989,-0.089 3.88327,0.36109 1.22826,0.54019 1.23305,2.37899 2.30311,3.16373 1.84723,1.35469 4.48119,1.01752 6.37073,2.38014 1.96106,1.41419 2.45145,3.75532 2.70653,6.01954 0.0938,0.83241 -0.0412,2.90053 0.65566,3.45237 l 0.8957,-0.6364 c -1.39231,-0.62776 -1.20601,-5.54983 -1.80931,-7.01647 -1.74474,-4.24154 -10.3663,-2.89811 -10.11082,-8.15393 0.0452,-0.9293 1.11825,-1.88455 1.51304,-2.71799 1.24927,-2.63725 2.50689,-7.24119 0.65262,-9.86123 -2.28645,-3.23072 -7.18734,-3.28026 -10.56323,-2.07356 -1.15452,0.41268 -3.17006,1.18754 -3.46744,2.54887 -0.27965,1.28018 1.37501,2.06634 1.65946,3.20967 0.36028,1.44822 -0.2513,2.7937 -0.26692,4.19955 -0.011,0.99584 0.81354,3.01516 1.24784,3.94961 0.61039,1.31331 3.60697,1.76644 2.39062,3.43636 -1.06687,1.46469 -3.78451,1.77397 -5.26894,2.86573 -3.08016,2.26536 -5.08241,6.34302 -5.93107,10.00957 h -0.49419 c -0.49642,-1.35345 -1.51845,-2.09367 -2.22075,-3.2827 -0.65271,-1.10507 -0.58285,-2.29103 -1.56698,-3.27391 -2.16921,-2.16649 -4.80454,-3.1442 -6.275408,-6.04491 -0.690658,-1.36205 -1.200011,-3.205 -0.577878,-4.69469 0.451456,-1.08095 1.440416,-1.95087 1.400166,-3.2112 -0.0347,-1.08681 -1.048962,-1.53198 -1.306557,-2.49758 -0.437041,-1.63829 -0.327606,-3.15809 -1.30522,-4.66875 -2.06516,-3.1912 -6.803481,-3.30665 -9.891166,-1.64974 -6.416369,3.44317 -2.237317,9.31416 -3.59708,14.49816 -0.71733,2.73476 -4.023975,3.68573 -5.71088,5.68666 -1.832532,2.17367 -2.338938,9.5128 -6.505716,8.67365 -0.861255,-0.17345 -1.706326,-0.6793 -2.470882,-1.09379 -0.884271,-0.47938 -1.69735,-1.01301 -2.470891,-1.65335 1.839142,-0.64071 2.039246,-2.49918 1.455838,-4.2005 -0.766947,-2.23658 -2.884026,-3.68827 -3.652934,-5.93013 -1.428969,-4.16638 0.475095,-9.36342 -3.733027,-12.35444 v -0.24709 c 1.503583,-1.55601 0.616255,-7.026526 2.728844,-7.376046 2.838941,-0.46968 2.942389,1.826596 3.708615,3.916806 1.152327,3.14348 2.608148,6.80224 5.669886,8.55754 3.699755,2.12108 5.684159,-0.59981 5.683038,-4.10994 -0.0017,-5.76623 -2.148008,-11.557784 -3.706331,-17.049113 4.389152,1.297374 10.488061,0.247084 15.07241,0.247084 h 31.874433 10.87189 c 0.89756,0 3.07268,0.395235 3.69947,-0.396174 0.72221,-0.911853 0.25396,-3.430461 0.25396,-4.54559 V 73.72101 25.538724 H 19.492657 m 0.98836,0.49418 c 9.506431,0.717444 19.366651,0 28.909377,0 h 58.312906 21.74381 c 1.39883,0 6.25055,-0.750452 7.15871,0.39618 0.72219,0.911862 0.25394,3.430462 0.25394,4.54559 V 43.082023 90.275942 H 76.075962 V 88.546327 H 134.38888 V 28.009613 H 22.457725 v 44.970131 11.118994 l 0.396179,4.051407 4.298506,0.396182 h 11.860251 v 1.729615 H 20.233927 V 45.05873 31.963035 l 0.24709,-5.930131 M 133.89471,87.80506 H 75.581787 v 2.717974 h -0.247091 c -0.708162,-4.813108 -1.362072,-7.59783 0.247091,-12.354426 2.571109,1.464631 5.094026,3.991434 8.15392,4.394781 4.71593,0.621636 9.731351,-6.542864 11.613162,-10.077828 l 1.235449,0.741266 0.17483,-3.20147 6.546132,-5.00412 1.934,-6.222022 4.19365,-3.36276 c -2.71088,-0.281866 -7.89955,2.819583 -6.50793,2.90176 l 1.07198,0.0633 v 0.247083 l -4.694688,2.223797 c 0.456836,-2.200025 -1.526796,-1.75535 -2.580134,-0.468244 -0.892075,1.090067 -0.774271,2.438685 -1.277762,3.680403 -0.392952,0.969078 -1.295705,1.719021 -1.588156,2.717974 -0.49268,1.682902 1.74765,2.742492 1.492629,4.447589 C 94.682314,70.563302 94.09796,69.51537 93.124132,69.235664 89.85446,68.296552 87.635951,74.959122 84.476975,73.695077 82.848008,73.04326 81.562558,71.304369 80.456636,70.014676 76.490925,65.390007 73.091235,58.140053 65.945326,58.895688 l -1.235441,-0.988353 -0.988349,4.200505 -2.223801,-1.482527 2.089955,-3.370976 -5.302106,-1.07662 v -0.24709 c 1.90963,0.246614 3.839416,0.894422 5.679224,-0.07492 3.45684,-1.82133 2.143981,-9.585864 2.276606,-12.773684 0.05571,-1.339741 2.839846,-3.837125 1.579006,-5.005456 -1.049659,-0.972644 -3.76163,-0.382171 -5.087241,-0.440221 -4.50774,-0.197403 -8.904961,-0.901622 -10.059711,4.704407 -0.174016,0.844841 -0.192129,1.621551 -0.07093,2.470888 2.106101,-1.094213 2.07632,-4.108394 4.447784,-5.133379 1.931812,-0.834958 4.868037,-0.533978 6.667389,0.529257 0.754734,0.445971 1.981506,1.560776 1.311331,2.529988 -1.502426,2.172843 -5.07722,-1.045682 -6.97988,-0.738217 -1.907991,0.308327 -1.949959,4.06319 -2.234473,5.530329 -1.470171,-0.6082 -4.749317,-1.183263 -3.180311,1.7258 0.585045,1.084709 1.778331,1.211266 2.503675,2.083863 0.672147,0.808615 0.787546,2.34466 0.923727,3.355903 -2.531985,1.436076 2.55259,5.602184 4.200505,5.93013 l -1.729625,2.717963 h -0.494173 c -0.912661,-1.639292 -2.03356,-4.273627 -3.706332,-5.188851 l 4.200505,16.554928 h -0.247083 c -1.62569,-2.141416 -5.87832,-5.457295 -6.271396,-8.153921 -0.159736,-1.095775 0.764566,-2.205598 1.082531,-3.212156 -2.83529,-0.221045 0.611057,-4.403497 0.49418,-6.177205 -2.511162,1.250874 -4.580596,3.44323 -6.918483,5.00393 -1.274947,0.851115 -2.889508,1.327745 -3.773634,2.659627 -2.136457,3.218433 -2.257894,9.0927 -2.877937,12.84479 -0.502943,3.043462 -0.565896,5.84171 -0.123735,8.895186 0.168889,1.166318 0.712364,2.679414 -0.390274,3.459248 l 0.247089,-2.223799 H 23.198988 V 28.503792 h 83.268872 20.26127 c 1.36421,0 6.02212,-0.726897 6.91162,0.39618 0.69361,0.875742 0.25396,3.231154 0.25396,4.298506 V 44.317466 87.80506 M 67.67495,38.387337 66.192417,41.599488 h -0.494174 c -3.111596,-5.26834 -10.821989,-3.085503 -12.354435,2.223798 -0.795068,-2.037776 0.998166,-5.032135 2.965062,-5.668548 3.340683,-1.080913 7.878934,0.232599 11.36608,0.232599 m -1.976707,4.694686 c 0,2.897527 0.0017,5.773167 -0.389506,8.6481 -0.144947,1.064775 -0.08029,2.504171 -0.95214,3.285554 -1.000156,0.896411 -2.85295,0.736634 -4.094305,0.64556 -0.881907,-0.06471 -1.897793,-0.264433 -2.691097,-0.670341 -1.499666,-0.767332 -1.014794,-2.754364 -1.936287,-3.946558 -0.632819,-0.818714 -1.784116,-0.949032 -2.388905,-1.811796 -0.335279,-0.478295 -0.521083,-1.29951 -0.104858,-1.796156 0.782623,-0.933862 1.894746,0.948781 2.813682,0.381884 1.559313,-0.961948 0.09914,-4.634254 2.116649,-5.148067 2.895952,-0.737537 4.542885,2.240692 7.626767,0.41182 m -2.470891,14.331139 c -0.599115,0.90572 -1.37348,2.212549 -2.471833,2.5582 -2.202967,0.693272 -4.70066,-2.983678 -4.940823,-4.781998 2.845305,0.965409 4.196429,2.223798 7.412656,2.223798 m 45.217228,-1.482534 v 0.24709 c -1.33636,0.711251 -3.19572,2.45655 -4.69469,1.482527 l 4.69469,-1.729617 m -55.347862,2.223798 c -0.63359,1.521834 -3.308128,4.92207 -0.741263,5.68304 -1.61225,3.878645 1.094892,5.664365 3.507856,8.648095 0.440501,0.544707 2.099616,3.099185 2.992139,2.490344 0.76201,-0.519806 -0.342241,-3.048037 -0.535168,-3.725785 -1.080913,-3.79725 -2.718839,-7.6953 -3.24685,-11.61316 h 0.247083 c 0.445958,0.954033 1.858829,4.245807 3.170205,4.044549 0.776585,-0.119183 1.336639,-1.406992 2.018662,-1.820751 l 0.247083,1.729616 c -1.472602,0.06784 -1.449265,1.755231 -1.478906,2.965057 -0.05918,2.415226 -0.939578,8.793906 1.973086,9.636469 v 0.247084 c -0.814631,0.195197 -1.8884,0.916162 -2.717978,0.77178 -0.915869,-0.15942 -1.699058,-1.165621 -2.47088,-1.644601 -1.718706,-1.066564 -5.807026,-3.219745 -7.895975,-2.607202 -0.902917,0.264761 -1.182724,1.156288 -1.235443,1.99749 -0.146007,2.329713 -0.01947,4.593416 -0.363582,6.918488 -0.148277,1.001767 -0.625458,2.271292 0.0085,3.185454 1.167763,1.683699 4.003487,1.03517 5.093918,2.797284 0.738182,1.192888 -0.283686,3.622487 0.191989,5.136247 -3.295136,1.754866 -8.92888,0.431819 -11.860259,-1.976715 1.522577,-3.029074 0.109824,-7.268098 0.256812,-10.624811 0.155036,-3.540577 1.125298,-7.158696 1.818654,-10.624802 0.312066,-1.560001 0.470401,-3.569605 1.385114,-4.915086 0.74639,-1.097892 2.373341,-1.557626 3.45791,-2.269939 2.075249,-1.362953 3.914536,-3.41969 6.177214,-4.428145 m 12.107343,0.494173 -0.494174,0.74127 0.494174,-0.74127 m 39.040008,0.49418 c 0.54196,1.971154 -0.4998,4.240026 -1.48253,5.930128 h -0.24708 c -0.0409,-4.519218 -5.129954,-2.153804 -0.98836,0.247091 -0.66055,2.333624 -3.765456,2.927544 -5.435953,4.447598 h -0.247092 c -0.580103,-0.6726 -1.460629,-1.517597 -1.485588,-2.470891 -0.02649,-1.01061 0.949167,-1.874022 1.386067,-2.717973 1.02358,-1.977223 0.59348,-4.39296 3.311669,-4.941772 v 1.976707 l 5.188867,-2.470888 m -37.804567,39.534184 -3.212148,0.247081 v -2.965055 c -5e-5,-0.803963 0.08691,-1.688557 -0.141459,-2.469744 -1.00591,-3.44094 -7.787323,0.178001 -10.23626,-0.495321 0.559108,-2.113268 -0.817903,-6.225404 1.235437,-7.412662 0.0063,8.17408 8.219205,-4.687299 10.130632,1.729624 -0.498974,0.170246 -1.015966,0.326103 -1.472803,0.597133 -2.837482,1.683384 1.023872,4.84216 2.277745,1.626093 0.2127,-0.545546 0.178226,-1.155308 0.183415,-1.729052 1.022484,0.0025 2.525068,0.43372 3.406433,-0.187035 2.07798,-1.463535 2.14061,-6.701038 1.968694,-8.955243 -0.0724,-0.949167 0.07365,-1.920354 -0.718001,-2.61083 -1.813892,-1.582004 -5.797837,-0.261771 -7.869279,0.139948 2.341168,-3.673575 0.466956,-7.429717 -0.201521,-11.366085 -0.217253,-1.279339 0.05211,-2.399337 -0.292652,-3.706328 l 2.717969,1.729621 0.494183,12.107343 c 1.943412,-1.046097 1.890546,-5.406081 1.976707,-7.412654 L 67.922,67.79088 66.192384,59.389869 c 9.092335,0.0063 10.896928,10.17685 17.54329,14.458876 3.633939,2.341221 5.5934,-4.572268 9.141334,-3.979337 2.239109,0.374195 1.917572,2.692832 1.086915,4.098694 -1.752167,2.965488 -4.463755,5.771798 -7.510274,7.436293 -2.810172,1.535373 -9.025903,-1.060429 -10.348743,-3.986785 -0.741689,-1.640756 0.254233,-4.091636 -0.331359,-5.920399 -0.405124,-1.265199 -2.116133,-3.773611 -3.467634,-1.939916 -2.242954,3.043239 2.801951,6.005456 2.61445,8.611313 -0.175776,2.443075 -1.558431,4.295817 -1.244782,6.918479 0.939727,7.8575 5.461355,15.428833 5.10859,23.473413 -0.147504,3.36388 -2.786756,4.21856 -5.425269,2.44496 -2.203182,-1.48098 -3.450397,-4.25297 -4.398211,-6.64548 -0.509021,-1.28485 -1.53823,-3.26415 -1.380155,-4.672546 0.09079,-0.80898 0.907618,-1.262171 1.180931,-2.002449 0.499472,-1.352888 -0.205045,-3.114836 -1.034507,-4.184872 -0.692253,-0.893005 -1.798963,-1.162747 -1.988522,0.23717 -0.215913,1.594524 0.574175,3.345603 0.701029,4.93968 m -0.741266,-38.79292 1.482541,6.918479 c -1.892896,0.597889 -1.517306,5.142832 -1.976716,6.918488 h -0.247083 c 0,-4.462435 -1.044154,-9.478362 0.247083,-13.836967 h 0.494175 m -4.200501,2.717978 -0.24709,0.247087 0.24709,-0.247087 m 40.52253,2.223794 c -3.308263,-1.128646 -0.18649,-3.403927 0,0 M 60.015166,64.084557 c 1.286728,0.223254 1.37257,1.32949 1.624759,2.470874 0.481286,2.178223 1.705149,5.743751 0.809519,7.895977 -1.400061,3.364393 -2.434201,-1.487282 -2.434278,-2.707105 v -3.212157 -4.447589 m 15.319496,12.848601 c -1.511659,-1.342716 -2.62218,-3.386762 -2.707877,-5.435947 -0.02574,-0.615242 -0.09231,-1.869115 0.766815,-1.967557 2.81825,-0.32289 2.002156,5.980812 1.941062,7.403504 m 20.755449,-5.435947 0.247091,0.741267 -0.247091,-0.741267 m -26.191404,6.671397 c 0.778614,3.270336 0.22753,9.843955 -4.187154,9.105678 -1.636231,-0.273637 -1.780282,-2.751053 -3.71968,-2.614077 -2.70294,0.190904 -4.182147,3.328059 -7.165566,3.391943 -0.314392,-2.487646 -1.505311,-4.084969 -2.470887,-0.741266 -1.25902,-0.659672 -4.710123,-1.319917 -5.3696,-2.539524 -0.451749,-0.835431 0.0166,-2.263554 0.160905,-3.143515 0.339404,-2.069062 0.171131,-4.09543 0.276836,-6.177221 0.04363,-0.859702 0.215411,-1.826845 1.239066,-1.917789 2.25678,-0.200519 5.848041,1.518103 7.646207,2.76849 0.641358,0.445983 1.575738,1.018905 1.677192,1.870901 0.222877,1.871482 -1.212702,4.157803 -1.169662,6.173593 0.01156,0.540223 0.05835,1.922853 0.769855,2.067842 0.619679,0.126273 0.884287,-0.917848 1.01429,-1.326767 0.429665,-1.351543 0.546199,-3.523232 1.625522,-4.545408 0.640223,-0.606316 1.933037,-0.435854 2.754197,-0.614852 2.343338,-0.510797 4.673532,-0.893254 6.918479,-1.758028 m 0.247092,-0.741267 c -2.265962,-0.718308 -4.225058,-0.238174 -6.424305,0.547938 -1.871853,0.669087 -3.273847,1.890919 -4.694682,-0.0538 2.053781,-1.167423 10.133718,-3.768879 11.118987,-0.494167 m -0.98835,0.247083 v 0.247084 l -7.659749,1.72962 c 1.762035,-1.423539 5.434979,-2.46047 7.659749,-1.976708 m -10.130637,0.988358 0.988354,0.98835 -2.223798,6.424304 h -0.24709 l 0.988354,-7.412654 h 0.49418 m 5.435948,9.14227 c -0.01295,4.519228 -4.295886,1.258789 0,0 m -11.860251,1.235449 -0.247089,3.45924 h -0.247091 l 0.49418,-3.45924 m 14.08405,3.953423 c 0.451821,0.549905 0.848891,1.081867 1.154801,1.729989 0.213323,0.45197 1.039887,4.324534 -0.526025,3.415391 -1.027806,-0.596717 -1.210067,-4.31097 -0.628776,-5.14538 m -16.802027,3.953414 v 0.247092 c -2.794701,4.393533 -2.223798,9.608533 -2.223798,14.578223 -1.709712,-2.8541 -0.383278,-8.78636 -0.699316,-12.107346 -0.09914,-1.041725 -0.294977,-3.032166 0.62592,-3.78983 0.800112,-0.658294 1.784726,0.576358 2.297194,1.071861 m 5.435948,-0.741266 -4.447595,0.494175 c 1.153896,-1.003461 3.042366,-0.909537 4.447595,-0.494175 m 7.165574,3.459235 -0.988354,6.671396 h -0.988353 c 0.04153,-2.01181 -0.02381,-5.62481 1.976707,-6.671396 m 60.289626,4.769036 c 2.9439,-0.4102 6.14639,1.51203 6.40123,4.62033 0.14122,1.72255 -0.21676,5.07701 -2.45143,5.35263 -3.61443,0.44579 -0.64178,-4.96339 -2.0793,-6.20696 -0.32516,-0.2813 -0.66514,-0.3045 -1.05965,-0.17787 -1.38309,0.44391 -6.08776,-0.0496 -3.73912,-2.37156 0.34196,-0.33807 0.75778,-0.57997 1.19864,-0.76377 0.54197,-0.22594 1.14898,-0.3719 1.72963,-0.4528 m -16.30785,25.37578 c -0.68243,2.40935 -3.58186,2.47007 -5.68304,2.47088 -5.010977,0.002 -10.366725,-1.80339 -15.319498,-1.09226 -1.877529,0.26958 -3.4454,0.90855 -5.188857,1.61695 -0.543728,0.22092 -1.479942,0.61093 -1.823997,-0.11269 -0.609422,-1.28175 0.707647,-3.73422 1.27033,-4.8596 2.122725,-4.24543 7.077394,-7.38226 8.08548,-12.10734 0.625496,-2.9318 -1.17766,-6.87774 0.96662,-9.36267 1.469704,-1.70319 4.351016,-1.56737 6.07007,-0.3224 1.314802,0.95221 3.920991,4.5875 3.90671,6.22945 -0.01918,2.2034 -1.294443,4.27444 -1.133255,6.42069 0.416043,5.53956 3.885797,9.19325 8.849437,11.11899 m -82.280523,-21.24962 1.235444,3.70632 c -1.996585,-0.40316 -2.576167,-1.94681 -1.729618,-3.70632 h 0.494174 m 13.342785,0 c 0.867814,1.23897 0.630936,2.98622 -0.741263,3.70632 -0.219935,-1.33282 -0.121983,-2.62204 0.741263,-3.70632 m 62.019258,2.71796 h 0.247083 c 0.308967,1.07785 0.246107,2.06298 -0.741266,2.71799 l 0.494183,-2.71799 m -66.466853,4.69469 v 0.24709 l -4.200505,0.2471 4.200505,-0.49419 m 92.905343,1.23544 v 0.24709 h -1.97671 l 1.97671,-0.24709 m -27.426848,0.74127 c 0.237701,2.70549 2.135978,4.91675 4.200508,6.54346 1.83268,1.44403 3.89012,2.20365 3.95341,4.82262 -3.86865,-1.50094 -10.30636,-6.23463 -8.153918,-11.36608 m -65.231405,3.95342 c -1.982268,0.36801 -4.480815,0.67102 -5.930129,-0.98836 1.74331,-0.32364 4.779435,-0.69151 5.930129,0.98836 m 94.140783,0 v 0.24709 l -5.93013,-0.49418 c 1.69375,-0.71074 4.17588,-0.0788 5.93013,0.24709 m -83.021788,4.94177 c 0.284198,0.73671 0.583063,1.46651 0.810086,2.22379 0.169009,0.56374 0.975187,4.387 -0.717428,3.60567 -1.572986,-0.7261 -0.956478,-4.83614 -0.09266,-5.82946 m 21.002536,2.71798 v 0.24709 c -5.504697,0.4496 -8.814366,6.51301 -14.578233,3.94349 -1.115218,-0.49715 -2.156124,-1.11424 -2.71797,-2.21387 2.423862,0.0503 4.725783,1.26509 7.165565,0.68197 3.855372,-0.92144 5.901742,-4.47814 10.130638,-2.65868 z"
       id="path2"
       sodipodi:nodetypes="cccccccccscsccccsssccsccscscssscssscccscsscccssssssssssscsssssscssssssssscsssssssccssscccsccssscssssssssccsssssssssssccsssssssssssscssccsssccscsssccccscsssccccccccccccccccccccccsccccccscccssscssscccccccssssscsssscsscccccccsccsssscccccsssccccccscccssssssssccsccccccccsssccsccsccssssscsccssssccccccccccssccccccscccsscssscsccccccsssssssssssssssscccccccccccccssccccsscccccssccscsssssssssccscccccccccccccccccccssccccsscccccccccsssssscccssssssssscccccccccccccccccccccsccccccccccsscccscsc" /><path
       style="fill:none;fill-opacity:1;stroke:#6f6f6f;stroke-width:0.5;stroke-linecap:round;stroke-dasharray:none;stroke-opacity:1;paint-order:fill markers stroke"
       d="M 154.99516,25.53224 V 130.90127"
       id="path4"
       sodipodi:nodetypes="cc" /><text
       xml:space="preserve"
       transform="matrix(0.47444847,0,0,0.47444847,-151.78159,-21.889756)"
       id="text4"
       style="font-size:16px;line-height:1.2;font-family:Tahoma;-inkscape-font-specification:Tahoma;text-align:center;letter-spacing:0.07px;white-space:pre;shape-inside:url(#rect5);display:inline;fill:#1c1c1c;fill-opacity:1;stroke:none;stroke-width:2.74003;stroke-dasharray:none;stroke-opacity:1;paint-order:fill markers stroke"><tspan
         x="689.83801"
         y="118.39455"
         id="tspan2"><tspan
           style="font-family:'Tw Cen MT';-inkscape-font-specification:'Tw Cen MT';stroke-width:1.52802"
           id="tspan1">Lesson 1</tspan></tspan></text><path
       style="fill:#424242;fill-opacity:1;stroke:none;stroke-width:1.3;stroke-dasharray:none;stroke-opacity:1;paint-order:fill markers stroke"
       id="path5"
       sodipodi:type="arc"
       sodipodi:cx="165.99686"
       sodipodi:cy="32.145378"
       sodipodi:rx="3.9777994"
       sodipodi:ry="3.9777994"
       sodipodi:start="1.560533"
       sodipodi:end="1.5581212"
       sodipodi:open="true"
       sodipodi:arc-type="chord"
       d="m 166.03768,36.122968 a 3.9777994,3.9777994 0 0 1 -4.01839,-3.934367 3.9777994,3.9777994 0 0 1 3.93195,-4.020761 3.9777994,3.9777994 0 0 1 4.02313,3.929519 3.9777994,3.9777994 0 0 1 -3.9271,4.025499 z" /><path
       sodipodi:type="star"
       style="fill:#fefefe;fill-opacity:1;stroke:none;stroke-width:8.20384;stroke-dasharray:none;stroke-opacity:1;paint-order:fill markers stroke"
       id="path6"
       inkscape:flatsided="false"
       sodipodi:sides="3"
       sodipodi:cx="542.47894"
       sodipodi:cy="117.74177"
       sodipodi:r1="46.589668"
       sodipodi:r2="23.588924"
       sodipodi:arg1="1.4464413"
       sodipodi:arg2="2.4854985"
       inkscape:rounded="0"
       inkscape:randomized="0"
       d="m 548.25768,163.97166 -24.47015,-31.84002 -24.23422,-32.500286 39.80935,-5.271761 40.26318,-4.737308 -15.3392,37.111785 z"
       transform="matrix(0.00520221,-0.04160253,0.04160253,0.00520221,158.11922,54.177851)"
       inkscape:transform-center-x="-0.27856429"
       inkscape:transform-center-y="-0.025504553" /><path
       style="fill:none;fill-opacity:1;stroke:#000000;stroke-width:0.2;stroke-dasharray:none;stroke-opacity:1;paint-order:fill markers stroke"
       d="m 159.5619,39.028583 h 51.89454"
       id="path7"
       sodipodi:nodetypes="cc" /><text
       xml:space="preserve"
       transform="matrix(0.47444847,0,0,0.47444847,-151.78159,-7.0730818)"
       id="text7"
       style="font-size:16px;line-height:1.2;font-family:Tahoma;-inkscape-font-specification:Tahoma;text-align:center;letter-spacing:0.07px;white-space:pre;shape-inside:url(#rect10);display:inline;fill:#1c1c1c;fill-opacity:1;stroke:none;stroke-width:2.74003;stroke-dasharray:none;stroke-opacity:1;paint-order:fill markers stroke"><tspan
         x="689.83801"
         y="118.39455"
         id="tspan4"><tspan
           style="font-family:'Tw Cen MT';-inkscape-font-specification:'Tw Cen MT';stroke-width:1.52802"
           id="tspan3">Lesson 2</tspan></tspan></text><path
       style="fill:#424242;fill-opacity:1;stroke:none;stroke-width:1.3;stroke-dasharray:none;stroke-opacity:1;paint-order:fill markers stroke"
       id="path8"
       sodipodi:type="arc"
       sodipodi:cx="165.99686"
       sodipodi:cy="46.962059"
       sodipodi:rx="3.9777994"
       sodipodi:ry="3.9777994"
       sodipodi:start="1.560533"
       sodipodi:end="1.5581212"
       sodipodi:open="true"
       sodipodi:arc-type="chord"
       d="m 166.03768,50.939649 a 3.9777994,3.9777994 0 0 1 -4.01839,-3.934367 3.9777994,3.9777994 0 0 1 3.93195,-4.020761 3.9777994,3.9777994 0 0 1 4.02313,3.929518 3.9777994,3.9777994 0 0 1 -3.9271,4.0255 z" /><path
       sodipodi:type="star"
       style="fill:#fefefe;fill-opacity:1;stroke:none;stroke-width:8.20384;stroke-dasharray:none;stroke-opacity:1;paint-order:fill markers stroke"
       id="path9"
       inkscape:flatsided="false"
       sodipodi:sides="3"
       sodipodi:cx="542.47894"
       sodipodi:cy="117.74177"
       sodipodi:r1="46.589668"
       sodipodi:r2="23.588924"
       sodipodi:arg1="1.4464413"
       sodipodi:arg2="2.4854985"
       inkscape:rounded="0"
       inkscape:randomized="0"
       d="m 548.25768,163.97166 -24.47015,-31.84002 -24.23422,-32.500286 39.80935,-5.271761 40.26318,-4.737308 -15.3392,37.111785 z"
       transform="matrix(0.00520221,-0.04160253,0.04160253,0.00520221,158.11922,68.994527)"
       inkscape:transform-center-x="-0.27856429"
       inkscape:transform-center-y="-0.025504553" /><path
       style="fill:none;fill-opacity:1;stroke:#000000;stroke-width:0.2;stroke-dasharray:none;stroke-opacity:1;paint-order:fill markers stroke"
       d="m 159.5619,53.845259 h 51.89454"
       id="path10"
       sodipodi:nodetypes="cc" /><text
       xml:space="preserve"
       transform="matrix(0.47444847,0,0,0.47444847,-151.78159,7.2144189)"
       id="text10"
       style="font-size:16px;line-height:1.2;font-family:Tahoma;-inkscape-font-specification:Tahoma;text-align:center;letter-spacing:0.07px;white-space:pre;shape-inside:url(#rect13);display:inline;fill:#1c1c1c;fill-opacity:1;stroke:none;stroke-width:2.74003;stroke-dasharray:none;stroke-opacity:1;paint-order:fill markers stroke"><tspan
         x="689.83801"
         y="118.39455"
         id="tspan6"><tspan
           style="font-family:'Tw Cen MT';-inkscape-font-specification:'Tw Cen MT';stroke-width:1.52802"
           id="tspan5">Lesson 3</tspan></tspan></text><path
       style="fill:#424242;fill-opacity:1;stroke:none;stroke-width:1.3;stroke-dasharray:none;stroke-opacity:1;paint-order:fill markers stroke"
       id="path11"
       sodipodi:type="arc"
       sodipodi:cx="165.99686"
       sodipodi:cy="61.249573"
       sodipodi:rx="3.9777994"
       sodipodi:ry="3.9777994"
       sodipodi:start="1.560533"
       sodipodi:end="1.5581212"
       sodipodi:open="true"
       sodipodi:arc-type="chord"
       d="m 166.03768,65.227163 a 3.9777994,3.9777994 0 0 1 -4.01839,-3.934367 3.9777994,3.9777994 0 0 1 3.93195,-4.020761 3.9777994,3.9777994 0 0 1 4.02313,3.929518 3.9777994,3.9777994 0 0 1 -3.9271,4.0255 z" /><path
       sodipodi:type="star"
       style="fill:#fefefe;fill-opacity:1;stroke:none;stroke-width:8.20384;stroke-dasharray:none;stroke-opacity:1;paint-order:fill markers stroke"
       id="path12"
       inkscape:flatsided="false"
       sodipodi:sides="3"
       sodipodi:cx="542.47894"
       sodipodi:cy="117.74177"
       sodipodi:r1="46.589668"
       sodipodi:r2="23.588924"
       sodipodi:arg1="1.4464413"
       sodipodi:arg2="2.4854985"
       inkscape:rounded="0"
       inkscape:randomized="0"
       d="m 548.25768,163.97166 -24.47015,-31.84002 -24.23422,-32.500286 39.80935,-5.271761 40.26318,-4.737308 -15.3392,37.111785 z"
       transform="matrix(0.00520221,-0.04160253,0.04160253,0.00520221,158.11922,83.282036)"
       inkscape:transform-center-x="-0.27856429"
       inkscape:transform-center-y="-0.025504553" /><path
       style="fill:none;fill-opacity:1;stroke:#000000;stroke-width:0.2;stroke-dasharray:none;stroke-opacity:1;paint-order:fill markers stroke"
       d="m 159.5619,68.132768 h 51.89454"
       id="path13"
       sodipodi:nodetypes="cc" /><text
       xml:space="preserve"
       transform="matrix(0.47444847,0,0,0.47444847,-151.78159,20.972759)"
       id="text13"
       style="font-size:16px;line-height:1.2;font-family:Tahoma;-inkscape-font-specification:Tahoma;text-align:center;letter-spacing:0.07px;white-space:pre;shape-inside:url(#rect16);display:inline;fill:#000000;fill-opacity:1;stroke:none;stroke-width:2.74003;stroke-dasharray:none;stroke-opacity:1;paint-order:fill markers stroke"><tspan
         x="689.83801"
         y="118.39455"
         id="tspan8"><tspan
           style="font-family:'Tw Cen MT';-inkscape-font-specification:'Tw Cen MT';stroke-width:1.52802"
           id="tspan7">Lesson 4</tspan></tspan></text><path
       style="fill:#000000;fill-opacity:1;stroke:none;stroke-width:1.3;stroke-dasharray:none;stroke-opacity:1;paint-order:fill markers stroke"
       id="path14"
       sodipodi:type="arc"
       sodipodi:cx="165.99686"
       sodipodi:cy="75.007919"
       sodipodi:rx="3.9777994"
       sodipodi:ry="3.9777994"
       sodipodi:start="1.560533"
       sodipodi:end="1.5581212"
       sodipodi:open="true"
       sodipodi:arc-type="chord"
       d="m 166.03768,78.985509 a 3.9777994,3.9777994 0 0 1 -4.01839,-3.934367 3.9777994,3.9777994 0 0 1 3.93195,-4.02076 3.9777994,3.9777994 0 0 1 4.02313,3.929518 3.9777994,3.9777994 0 0 1 -3.9271,4.025499 z" /><path
       sodipodi:type="star"
       style="fill:#fefefe;fill-opacity:1;stroke:none;stroke-width:8.20384;stroke-dasharray:none;stroke-opacity:1;paint-order:fill markers stroke"
       id="path15"
       inkscape:flatsided="false"
       sodipodi:sides="3"
       sodipodi:cx="542.47894"
       sodipodi:cy="117.74177"
       sodipodi:r1="46.589668"
       sodipodi:r2="23.588924"
       sodipodi:arg1="1.4464413"
       sodipodi:arg2="2.4854985"
       inkscape:rounded="0"
       inkscape:randomized="0"
       d="m 548.25768,163.97166 -24.47015,-31.84002 -24.23422,-32.500286 39.80935,-5.271761 40.26318,-4.737308 -15.3392,37.111785 z"
       transform="matrix(0.00520221,-0.04160253,0.04160253,0.00520221,158.11922,97.040378)"
       inkscape:transform-center-x="-0.27856429"
       inkscape:transform-center-y="-0.025504553" /><path
       style="fill:none;fill-opacity:1;stroke:#000000;stroke-width:0.2;stroke-dasharray:none;stroke-opacity:1;paint-order:fill markers stroke"
       d="m 159.5619,81.89111 h 51.89454"
       id="path16"
       sodipodi:nodetypes="cc" /><rect
       style="fill:url(#linearGradient18);stroke:none;stroke-width:0.2;stroke-dasharray:none;stroke-opacity:1;paint-order:fill markers stroke"
       id="rect17"
       width="53.131271"
       height="12.805019"
       x="159.43895"
       y="70.022789" /></g></svg>
