<?xml version="1.0" encoding="UTF-8" standalone="no"?>
<!-- Created with Inkscape (http://www.inkscape.org/) -->

<svg
   width="163.14278mm"
   height="99.313042mm"
   viewBox="0 0 163.14278 99.313042"
   version="1.1"
   id="svg1"
   xml:space="preserve"
   inkscape:version="1.3.2 (091e20e, 2023-11-25, custom)"
   sodipodi:docname="working.svg"
   xmlns:inkscape="http://www.inkscape.org/namespaces/inkscape"
   xmlns:sodipodi="http://sodipodi.sourceforge.net/DTD/sodipodi-0.dtd"
   xmlns="http://www.w3.org/2000/svg"
   xmlns:svg="http://www.w3.org/2000/svg"><sodipodi:namedview
     id="namedview1"
     pagecolor="#505050"
     bordercolor="#eeeeee"
     borderopacity="1"
     inkscape:showpageshadow="0"
     inkscape:pageopacity="0"
     inkscape:pagecheckerboard="0"
     inkscape:deskcolor="#505050"
     inkscape:document-units="mm"
     inkscape:zoom="0.69219276"
     inkscape:cx="309.88478"
     inkscape:cy="319.99757"
     inkscape:window-width="1920"
     inkscape:window-height="991"
     inkscape:window-x="-9"
     inkscape:window-y="-9"
     inkscape:window-maximized="1"
     inkscape:current-layer="layer1" /><defs
     id="defs1" /><g
     inkscape:label="Layer 1"
     inkscape:groupmode="layer"
     id="layer1"
     transform="translate(-28.446728,-91.370544)"><rect
       style="fill:#ffffff;fill-opacity:1;stroke-width:0.1;paint-order:fill markers stroke"
       id="rect1"
       width="163.14278"
       height="99.313042"
       x="28.446728"
       y="91.370544" /><path
       style="fill:#000000;fill-opacity:1;stroke:none"
       d="m 128.5219,117.64192 c 0.26501,0.97541 0.95908,2.10452 0.88386,3.12735 -0.0897,1.21906 -1.20881,2.57985 -1.76147,3.64857 -0.79761,1.54238 -1.19431,3.15833 -1.45806,4.86477 -0.91039,5.89019 -0.21096,12.62098 -0.26889,18.59035 -0.0214,2.20668 -0.2073,4.40376 -0.39229,6.60218 -0.069,0.81983 -0.0173,1.94838 -0.86837,2.36623 -2.28596,1.12241 -5.79806,0.91777 -8.29669,1.16865 -4.51046,0.45292 -9.03691,0.64875 -13.55185,1.02567 -1.84265,0.15384 -3.731894,0.73224 -5.559734,0.78079 -2.546794,0.0676 -6.290538,-1.45252 -8.679109,-0.42205 -3.758201,1.62135 -6.324209,7.24673 -8.37659,10.54371 -0.473436,0.76055 -2.745068,4.48738 -0.144723,3.64858 0.890617,1.72509 2.884335,-0.80098 3.648574,-1.56368 l -0.521225,1.73742 c 2.881519,0.46732 3.813318,-2.5334 6.080962,-3.55152 2.621961,-1.17721 7.238897,3.35313 7.992111,-1.83447 h 0.17374 l 0.34749,2.0849 c 1.6863,-0.28335 3.221084,-0.32771 4.864764,0.17374 l -1.27565,5.90721 -0.91331,2.37134 -2.675804,0.0907 -6.080964,-0.20342 -25.540017,-0.52122 c 2.00704,-2.5437 4.683728,-4.62922 6.943249,-6.94966 0.880092,-0.90382 2.350591,-2.08533 2.764988,-3.30109 0.600911,-1.76296 -0.86742,-5.16678 -1.282962,-6.94967 -1.270199,-5.44979 -2.423628,-10.98749 -3.356795,-16.50545 -0.295111,-1.74504 -0.685889,-3.47165 -0.999687,-5.21224 -0.106317,-0.58972 -0.06557,-1.59868 -0.607142,-1.99278 -0.68928,-0.50159 -2.517851,0.22027 -3.287909,0.3754 -3.013859,0.60718 -6.308748,0.55558 -9.208305,1.61737 1.777951,9.96117 3.884751,19.91574 6.428439,29.70981 -5.064975,0.84964 -10.697614,0.38324 -15.810486,0.18524 l 4.34354,0.33599 c 3.767944,0 8.132529,0.47753 11.814429,-0.34748 l -4.913075,-21.89145 -1.079409,-5.55973 -0.04209,-2.11367 2.907229,-0.79054 8.860823,-1.43933 c 0.774058,7.38978 2.813659,14.78733 4.281351,22.06519 0.433882,2.15148 2.295252,6.23398 1.59308,8.33959 -0.405314,1.21542 -1.8682,2.24846 -2.747083,3.12735 -2.202029,2.20204 -4.313736,4.69171 -6.775922,6.60218 -0.51267,-2.07323 -0.67532,-5.66406 -2.0849,-7.29714 0.285151,1.98348 0.815467,3.95184 1.254773,5.90721 0.14788,0.65822 0.228781,1.74085 0.810994,2.17956 0.602862,0.45428 1.744189,0.25281 2.451515,0.25282 2.025112,3e-5 4.056539,-0.0467 6.080957,0.006 6.362634,0.16705 12.747256,0.49854 19.111579,0.51506 2.12096,0.006 4.65944,0.65913 6.739694,0.25555 0.9518,-0.18466 1.00455,-1.4023 1.17524,-2.16697 0.33516,-1.50139 0.55395,-6.43726 2.34786,-6.73307 2.43846,-0.40209 4.89469,0.39313 7.28511,0.73751 3.28692,0.47355 6.61929,0.56735 9.90327,1.02309 1.43724,0.19945 4.30392,-0.3519 5.40325,0.74475 0.77903,0.77715 1.09531,2.11261 1.77265,3.01154 2.24829,2.9838 4.50356,5.89961 6.54657,9.03456 0.9633,1.47816 2.02808,4.1398 3.67439,4.93612 1.33254,0.64456 3.39496,0.27613 4.84207,0.27613 3.42384,0 6.83073,0.17374 10.25075,0.17374 l -0.34748,-0.17374 v -0.17374 h 6.42844 l 0.0115,-6.08096 -0.70646,-12.68313 h -0.17374 l 0.69497,18.41661 h -13.89933 c -1.90862,0 -4.80354,0.41728 -6.57949,-0.34904 -1.48269,-0.63978 -2.47967,-3.21908 -3.3273,-4.51573 -2.60737,-3.98852 -6.06292,-7.97056 -7.9886,-12.33565 3.61707,0.007 7.65894,0.75262 10.9457,-1.22893 3.40395,-2.0522 5.18614,-6.92392 6.70043,-10.41176 4.39584,-10.12486 6.33279,-20.50315 7.02518,-31.44723 1.67293,4.45403 2.20782,9.57632 3.01308,14.24681 1.55764,9.03428 2.81402,18.28903 3.24162,27.45117 h 0.17374 c 0,-5.452 -0.85241,-10.92725 -1.50245,-16.33171 -0.92921,-7.72538 -2.04047,-15.55053 -3.94301,-23.10763 -1.26875,-5.03966 -2.67614,-11.22701 -8.97509,-11.7812 -4.37354,-0.38479 -5.64589,4.36658 -5.5533,7.95889 0.0295,1.14573 0.47329,2.51636 0.16157,3.63707 -0.67437,2.42457 -4.34858,3.25517 -4.98425,5.59033 -0.48626,1.78623 2.50251,2.90272 2.1798,4.84567 -0.88408,5.32304 -4.51534,10.2507 -5.00818,15.63674 -1.48107,-1.95437 -0.0802,-6.84355 -0.006,-9.20831 0.24296,-7.71577 1.97369,-16.04141 5.50603,-22.93389 1.21639,-2.37348 2.64311,-5.26213 4.75047,-6.94966 v -0.52122 l -2.43238,-1.21619 c 1.32107,3.07431 -0.91041,5.40556 -2.98396,7.6446 -0.55572,0.60007 -1.59641,2.03715 -2.53061,1.95132 -1.33811,-0.12294 -1.77825,-3.09401 -2.47755,-4.0362 l -2.77986,2.43239 c 1.3839,-3.96468 6.85337,-4.37833 9.42822,-7.58164 0.96486,-1.20037 -0.42902,-3.35307 -0.29637,-4.75401 0.39177,-4.13766 2.7907,-7.4903 2.4864,-11.81443 -0.18018,-2.560263 -1.36105,-7.227423 -3.80152,-8.487323 -2.87409,-1.48375 -7.67898,-0.37979 -10.77034,-0.0856 -2.29729,0.21864 -6.0435,-0.46933 -7.636,1.66181 -1.47992,1.98048 0.2704,5.08611 0.36059,7.258573 0.1784,4.29732 0.82582,8.52784 1.94892,12.68313 0.50636,1.87343 1.27424,4.02743 3.24185,4.79011 1.86578,0.7232 3.67039,-0.12085 5.38573,-0.79405 m 8.86082,-6.60218 h -0.17374 c -0.0906,-2.29533 1.01594,-4.49268 1.18584,-6.77592 0.0887,-1.19174 0.0926,-2.45636 0.009,-3.64858 -0.20371,-2.903953 -2.78001,-3.411623 -5.19081,-3.281963 -4.19624,0.22569 -9.89583,3.402573 -13.89932,1.54455 l -0.17375,0.17374 v 0.34748 c 1.87131,0.703393 4.08066,-0.43336 5.71773,0.47568 1.39465,0.774443 1.02556,2.705363 2.31079,3.441303 0.76643,0.43887 1.73615,0.14711 2.56253,0.36421 1.50372,0.39504 1.9377,2.00444 2.09209,3.36344 h 0.34749 c 9e-5,-1.11724 -0.1597,-2.46955 0.6734,-3.35437 1.37136,-1.45651 3.33413,0.17436 3.42779,1.79072 0.0984,1.69814 -1.30976,3.09953 -2.0163,4.51726 1.07673,-1.32085 2.47261,-3.02828 2.17887,-4.86468 -0.55024,-3.43989 -3.72039,-2.23812 -4.61125,0.17366 -0.57809,-0.83454 -1.20588,-1.68749 -2.25872,-1.91613 -0.81758,-0.17755 -1.77776,0.1844 -2.49318,-0.37859 -1.07689,-0.84742 -1.1392,-2.60762 -2.3715,-3.612503 v -0.17374 c 2.96543,-0.60941 5.82031,-1.38588 8.84932,-1.61373 1.30275,-0.098 2.94262,-0.0916 3.86921,0.98251 0.98738,1.1446 0.90141,3.039593 0.80362,4.453543 -0.24633,3.56153 -1.36024,6.83176 -1.36024,10.42449 -1.75262,-0.54797 -2.59273,-1.67113 -2.60613,-3.47483 h -0.17374 c -0.56592,3.11127 4.50649,3.57269 3.47702,6.58143 -0.53968,1.57728 -3.71378,3.02619 -5.04069,3.93602 -0.49331,0.33825 -1.07853,0.85709 -1.70167,0.90726 -1.16481,0.0938 -2.02325,-3.25242 -1.71425,-4.10846 0.36341,-1.00676 1.54858,-1.78733 2.19973,-2.62523 -2.50129,1.60913 -4.68622,4.87673 -8.16517,3.38868 -1.97894,-0.84645 -2.63427,-3.23702 -3.11556,-5.12609 -1.09574,-4.30084 -1.28915,-8.50052 -1.85281,-12.85688 -0.23124,-1.787173 -1.53899,-4.186003 -0.52386,-5.898493 0.92749,-1.56466 2.99222,-1.69506 4.62283,-1.73981 3.42301,-0.0939 6.82005,-0.52773 10.25076,-0.52756 1.7698,9e-5 3.50313,-0.0131 4.64466,1.57884 1.94525,2.71272 2.87224,7.342643 2.23633,10.583083 -0.46617,2.37545 -1.609,4.56711 -2.01623,6.94966 m 2.60613,6.42844 0.86871,0.52122 -0.86871,1.2162 v -1.73742 m 9.03456,5.03851 c -1.13162,-0.40205 -2.23694,-0.94835 -3.47483,-0.787 -3.69449,0.48157 -5.18128,5.95541 -6.08096,8.95285 -1.02218,-2.90872 -0.6788,-8.77224 2.61282,-10.27245 1.35527,-0.61769 3.40649,-0.0274 4.68433,0.53763 0.86774,0.38366 1.61657,0.87212 2.25864,1.56897 m -22.58641,48.82139 -0.17374,1.04245 c -5.8821,-1.40043 -12.32167,-0.35249 -18.24287,-1.96224 -1.14426,-0.31108 -4.68339,0.24884 -5.03851,-0.81763 -4.638234,0.46311 -3.785434,-3.79635 -4.343544,-7.12341 l 10.424504,-1.08658 21.89144,-1.96209 3.12735,0.26881 1.21619,0.72393 3.30109,2.05593 c -1.22159,-1.22953 -4.39749,-2.24912 -4.97233,-3.87869 -0.68015,-1.92811 1.0953,-5.96266 1.52748,-7.93573 1.04588,-4.7748 2.32869,-9.4897 3.44146,-14.24682 0.58497,-2.50073 0.8024,-5.02973 1.67129,-7.47089 1.2982,-3.64734 3.90618,-9.27692 8.58217,-6.06317 0.60797,0.41785 1.13741,0.95112 1.57121,1.54664 2.46779,3.38779 1.53912,8.2929 1.13183,12.16117 -1.122,10.65616 -4.46718,21.43018 -9.77908,30.75226 -2.44877,4.29747 -6.50639,5.38603 -11.16614,5.06815 -1.68791,-0.11515 -2.85783,0.1582 -4.1698,-1.07209 m 5.21225,-45.17282 h 0.17374 l 0.34749,-0.34748 c 1.77483,2.04591 3.5775,-0.50639 4.69102,-2.0849 h 0.17374 c -0.94665,3.08652 -2.69942,5.88904 -3.60307,9.03456 -2.12663,7.40255 -2.96593,15.42201 -2.99911,23.10763 h -0.34748 c -0.74819,-6.81742 0.5959,-13.80011 0.87994,-20.67525 0.11001,-2.66262 0.72449,-5.40327 -0.0112,-7.99211 l 0.69497,-1.04245 c -0.28394,0.23887 -0.52212,0.47396 -0.90745,0.52497 -3.50438,0.46393 -0.3393,-5.80256 0.73572,-1.91672 0.12737,0.46041 0.15509,0.91731 0.17173,1.39175 m -3.64857,-1.38993 v 0.69496 l 0.69496,-0.34748 -0.59402,3.99606 -0.90951,8.68708 -0.58137,19.45906 4.34354,1.04245 c 1.17902,-3.34815 2.26891,-6.72728 3.44405,-10.07702 0.69051,-1.9683 1.74728,-4.18017 2.00167,-6.25469 0.23095,-1.88341 -2.53623,-3.19446 -2.09292,-4.80374 0.41486,-1.50599 3.42034,-3.63246 4.63932,-4.57831 -0.36021,6.49174 -2.94089,13.30561 -4.42792,19.6328 -0.42759,1.81934 -2.04169,5.63555 -0.61059,7.12341 v 0.17374 c -11.67969,-0.87417 -23.7638,1.7792 -35.443294,2.60612 0.002,2.75442 0.12055,5.52672 1.737424,7.81837 -0.616294,0.005 -1.743894,0.24975 -2.179574,-0.30866 -0.48642,-0.62343 -0.24961,-1.90566 -0.25348,-2.64494 -0.0105,-2.00492 -1.13929,-5.13581 0.52659,-6.76848 1.20578,-1.18175 4.174014,-0.79652 5.728774,-0.90588 5.0461,-0.35496 10.08116,-0.8542 15.11552,-1.33229 1.50394,-0.14282 5.18395,0.0161 6.23511,-1.20176 1.10973,-1.28571 0.58941,-5.15952 0.75449,-6.81827 0.51447,-5.16907 0.5225,-10.617 0.28992,-15.81049 -0.1315,-2.93609 -0.42411,-6.96879 1.58131,-9.38204 m 2.25864,32.83716 c -0.83561,-0.0873 -2.51303,-0.0558 -3.04828,-0.80923 -0.84665,-1.19176 -0.25281,-4.36642 -0.25281,-5.79295 0,-5.40602 0.24752,-10.78159 0.80924,-16.15797 0.19378,-1.85475 0.36834,-3.70682 0.58138,-5.55973 0.082,-0.71284 0.14514,-1.73543 0.92006,-2.05455 0.88171,-0.36309 1.61816,0.38402 1.78443,1.1933 0.35945,1.74955 -0.22778,3.77849 -0.27896,5.55227 -0.18332,6.35432 -1.44925,12.7572 -1.33475,19.11158 0.0281,1.55678 0.6948,2.98076 0.81969,4.51728 m -32.663434,2.60612 -0.97514,1.89026 -2.67343,-0.26711 -6.428439,-0.92818 c 1.549449,-2.55743 7.538989,-1.26857 10.077009,-0.69497 M 83.52271,173.58626 c 0.534136,-1.80414 1.574661,-3.27046 2.779866,-4.69103 -2.181929,1.47446 -3.214904,4.39645 -5.907215,5.21225 0.610291,-2.19593 2.468379,-4.28075 3.822316,-6.08095 -1.266122,1.06739 -2.150625,2.52428 -3.165763,3.82064 -0.365198,0.46637 -0.90462,1.41525 -1.550266,1.52088 -1.334053,0.21826 0.550933,-2.64257 0.720035,-2.90914 1.40348,-2.21246 2.834929,-4.41147 4.272423,-6.6021 0.612507,-0.93341 1.333316,-2.16168 2.506825,-2.43278 2.139973,-0.49437 5.142068,0.64629 7.293755,0.9416 0.76078,0.10441 1.86375,0.0586 2.4605,0.61752 1.42264,1.33245 0.63882,5.77723 -0.51239,7.06719 -1.83909,2.06076 -4.511744,-0.82497 -6.639129,-0.26085 -2.465696,0.65383 -3.336085,3.6081 -6.080957,3.79677 m 19.11158,-3.82232 c -0.10668,0.4953 -0.22632,0.49592 -0.69497,0.34748 l 0.69497,-0.34748 m 24.49757,2.95361 6.08095,9.03456 c -1.90128,-1.46954 -3.40459,-4.15737 -4.85241,-6.08095 -0.63705,-0.84641 -1.32227,-1.85385 -1.22854,-2.95361 m 6.19679,9.32413 -0.0579,0.11583 0.0579,-0.11583 m 0.40539,0.4054 -0.17374,0.17374 0.17374,-0.17374 m 0.11583,0.46331 -0.0579,0.11582 0.0579,-0.11582 m 0.40539,0.23165 -0.17374,0.17375 0.17374,-0.17375 m 0.17375,0.52123 -0.17375,0.17374 0.17375,-0.17374 m 0.34748,0.34748 -0.17374,0.17374 0.17374,-0.17374 m 0.17374,0.34749 -0.17374,0.17374 0.17374,-0.17374 m 0.34748,0.52122 -0.17374,0.17374 0.17374,-0.17374 m 0.17375,0.34748 -0.17375,0.17375 0.17375,-0.17375 m 0.34748,0.34749 -0.17374,0.17374 0.17374,-0.17374 m 0.11583,0.46331 -0.0579,0.11582 0.0579,-0.11582 m 0.40539,0.4054 -0.17374,0.17374 0.17374,-0.17374 m 0.11583,0.46331 -0.0579,0.11582 0.0579,-0.11582 m 0.4054,0.40539 0.17374,0.52123 h -0.17374 v -0.52123 m 0.52122,0.69497 0.52123,1.04245 -0.52123,-1.04245 m 1.91116,1.73742 -0.17374,0.17374 0.17374,-0.17374 m 0.34748,0.0579 c 0.13438,0 0.0278,0.0865 -0.0579,0.0579 z"
       id="path1"
       sodipodi:nodetypes="ccsssscsscsscccscccccccccsssssssccccccccccsssccsssccssssssssssccccccccssscsscsccsssssssccscccssccssssssssscccscscccsssccsscscssccssscccsssscsssscscsccccccscsscccscccccccsssssssssccccccsccsccssccccccccssscsccccsssssscsccssscssscccccccccccsssssssssccccccsccccccccccccccccccccccccccccccccccccccccccccccccccccc" /></g></svg>
